<svg width="721" height="284" viewBox="0 0 721 284" fill="none" xmlns="http://www.w3.org/2000/svg">
<path d="M77.4922 124.197C74.2319 125.145 72.6086 129.157 74.5483 131.96C75.979 134.034 77.9187 134.803 80.3536 134.254C80.7113 134.172 81.1927 133.952 81.798 133.608L116.699 168.463C116.699 168.463 116.74 168.491 116.767 168.463L118.267 166.966C118.267 166.966 118.294 166.911 118.267 166.897L83.38 132.056C84.5081 129.967 84.4806 128.058 83.3113 126.34C81.9906 124.403 79.7208 123.551 77.506 124.211L77.4922 124.197ZM81.0827 131.328C79.9134 132.495 78.015 132.495 76.8456 131.328C75.6763 130.16 75.6763 128.264 76.8456 127.096C78.015 125.928 79.9134 125.928 81.0827 127.096C82.252 128.264 82.252 130.16 81.0827 131.328Z" fill="#212E25"/>
<path d="M81.0825 152.775C80.9449 152.775 80.8211 152.72 80.7386 152.638L76.1301 148.021C77.2169 146.002 77.2169 144.147 76.1301 142.457C74.3418 139.668 70.6275 139.091 68.1513 141.372C65.8677 143.474 65.9227 146.991 68.2063 149.052C69.9947 150.673 72.4296 150.81 74.5068 149.588L79.8444 154.877C79.927 154.959 80.037 155.001 80.1608 155.001H91.3175C91.4825 155.001 91.6339 155.069 91.7439 155.179L110.866 174.276C110.866 174.276 110.921 174.304 110.934 174.276L112.42 172.792C112.42 172.792 112.448 172.737 112.42 172.71L92.6243 152.94C92.5143 152.83 92.3492 152.761 92.1979 152.761H81.0688L81.0825 152.775ZM69.582 147.293C68.4126 146.125 68.4126 144.229 69.582 143.062C70.7513 141.894 72.6497 141.894 73.819 143.062C74.9883 144.229 74.9883 146.125 73.819 147.293C72.6497 148.461 70.7513 148.461 69.582 147.293Z" fill="#212E25"/>
<path d="M104.785 130.353C104.785 130.284 104.757 130.201 104.702 130.16L99.3373 124.802C100.011 123.744 100.286 122.618 100.163 121.409C100.066 120.461 99.7087 119.595 99.1172 118.826C95.6918 114.374 88.7171 117.617 89.8452 123.057C90.2029 124.788 91.5235 126.258 93.1468 126.863C94.6738 127.426 96.2145 127.261 97.7553 126.368L102.474 131.053C102.474 131.053 102.556 131.177 102.556 131.246V142.539C102.556 142.621 102.598 142.717 102.653 142.772L122.476 162.57C122.476 162.57 122.6 162.639 122.669 162.57L124.017 161.223C124.086 161.155 124.086 161.072 124.017 161.004L104.895 141.921C104.895 141.921 104.799 141.769 104.799 141.673V130.339L104.785 130.353ZM92.8304 124.074C91.6611 122.906 91.6611 121.01 92.8304 119.842C93.9997 118.675 95.8981 118.675 97.0674 119.842C98.2367 121.01 98.2367 122.906 97.0674 124.074C95.8981 125.242 93.9997 125.242 92.8304 124.074Z" fill="#212E25"/>
<path d="M112.091 129.446C109.353 131.645 109.339 135.807 112.352 137.855C114.113 139.05 116.025 139.091 118.13 137.978L122.821 142.608C122.821 142.608 122.903 142.732 122.903 142.8V151.236C122.903 151.36 122.945 151.47 123.027 151.552L128.255 156.773C128.255 156.773 128.392 156.828 128.447 156.773L129.782 155.44C129.782 155.44 129.837 155.303 129.782 155.248L125.201 150.604C125.201 150.604 125.132 150.494 125.132 150.412V141.894C125.132 141.825 125.104 141.756 125.049 141.701L119.712 136.357C120.537 134.928 120.744 133.499 120.29 132.043C119.23 128.567 114.966 127.111 112.077 129.419L112.091 129.446ZM117.414 135.67C116.245 136.838 114.347 136.838 113.177 135.67C112.008 134.502 112.008 132.606 113.177 131.439C114.347 130.271 116.245 130.271 117.414 131.439C118.584 132.606 118.584 134.502 117.414 135.67Z" fill="#212E25"/>
<path d="M100.961 173.081H92.6245C92.5144 173.081 92.4181 173.04 92.3494 172.971L87.7134 168.327C88.6076 166.733 88.7726 165.195 88.2224 163.711C86.8329 160.029 82.0181 158.985 79.3493 162.076C77.6022 164.109 77.6435 167.173 79.5419 169.097C81.3028 170.883 83.9441 171.226 86.0901 169.893L91.3176 175.1C91.4414 175.224 91.6065 175.293 91.7853 175.293H100.094C100.218 175.293 100.356 175.348 100.438 175.43L105.005 179.991C105.005 179.991 105.116 180.046 105.157 179.991L106.588 178.563C106.588 178.563 106.629 178.48 106.588 178.439L101.36 173.232C101.25 173.122 101.085 173.053 100.934 173.053L100.961 173.081ZM81.1927 167.613C80.0234 166.445 80.0234 164.549 81.1927 163.381C82.362 162.213 84.2604 162.213 85.4298 163.381C86.5991 164.549 86.5991 166.445 85.4298 167.613C84.2604 168.781 82.362 168.781 81.1927 167.613Z" fill="#212E25"/>
<path d="M139.837 54.6261C138.984 68.8319 130.249 78.71 119.243 86.7884C115.928 89.2202 112.613 91.4871 109.284 93.5753C102.116 98.0954 95.5957 102.258 89.7354 106.078C89.6528 106.133 89.6115 106.242 89.6528 106.325C88.2221 107.218 86.8464 108.125 85.5258 109.045C84.1914 109.966 82.8983 110.9 81.6739 111.834C79.5554 113.442 77.602 115.063 75.7999 116.698C74.603 117.783 73.475 118.868 72.4157 119.954C70.2834 122.124 68.4125 124.295 66.7617 126.438C66.0326 127.386 65.3586 128.321 64.7257 129.269C64.5744 129.323 64.4369 129.433 64.3406 129.571C64.1892 129.791 64.0517 129.997 63.9003 130.216C62.112 132.868 60.6263 135.561 59.4157 138.295C59.3606 138.419 59.4157 138.556 59.5395 138.611C59.5395 138.611 59.567 138.611 59.5808 138.611C58.3427 141.51 57.4485 144.312 56.8294 146.991H56.7606C56.5956 146.937 56.4855 146.991 56.458 147.17C55.7427 150.646 55.385 153.971 55.385 157.131C55.385 157.282 55.4675 157.419 55.5913 157.474C55.5501 165.951 57.8061 171.749 58.1638 172.587C58.1638 172.587 58.1638 172.614 58.1776 172.628C58.1776 172.655 58.1913 172.669 58.1913 172.683V172.697C60.2548 178.769 63.2951 184.429 67.2707 189.691C67.7385 190.296 67.6697 190.351 67.0919 189.87C59.0855 183.193 52.4823 175.513 47.2686 166.83C39.8262 154.438 36.841 140.246 41.7109 126.425C43.2103 122.152 45.3839 118.14 48.0252 114.389C48.9331 113.098 49.8961 111.848 50.9003 110.625C52.7162 108.427 54.6834 106.325 56.7606 104.346C57.7649 103.385 58.7966 102.437 59.8559 101.516C59.9797 101.406 60.1173 101.297 60.2411 101.187C62.057 99.6341 64.1205 98.1228 66.4178 96.6391C66.6379 96.5017 66.858 96.3643 67.0781 96.2132C68.2062 95.4988 69.348 94.7843 70.476 94.0562C76.6115 90.1269 82.747 86.019 89.0888 82.392C99.7502 76.292 110.026 69.1479 118.638 61.1108C126.369 53.8979 135.009 43.5527 135.944 32.5892C135.971 32.2732 136.04 32.2732 136.137 32.5617C138.599 39.6921 140.222 47.166 139.782 54.6261H139.837Z" fill="#E21E2D"/>
<path d="M49.4002 231.739C50.2531 217.533 58.9886 207.655 69.9939 199.576C73.3093 197.145 76.6246 194.878 79.9537 192.789C87.121 188.269 93.6416 184.107 99.502 180.287C99.5845 180.232 99.6258 180.122 99.5845 180.04C101.015 179.147 102.391 178.24 103.711 177.32C105.046 176.399 106.339 175.465 107.563 174.531C109.682 172.923 111.635 171.302 113.437 169.667C114.634 168.582 115.762 167.496 116.822 166.411C118.954 164.24 120.825 162.07 122.476 159.926C123.205 158.978 123.879 158.044 124.512 157.096C124.663 157.041 124.8 156.931 124.897 156.794C125.048 156.574 125.186 156.368 125.337 156.148C127.125 153.497 128.611 150.804 129.822 148.07C129.877 147.946 129.822 147.809 129.698 147.754C129.698 147.754 129.67 147.754 129.657 147.754C130.895 144.855 131.789 142.052 132.408 139.373H132.477C132.642 139.428 132.752 139.373 132.779 139.195C133.495 135.719 133.852 132.394 133.852 129.234C133.852 129.083 133.77 128.946 133.646 128.891C133.687 120.414 131.431 114.616 131.073 113.778C131.073 113.778 131.073 113.751 131.06 113.737C131.06 113.709 131.046 113.696 131.046 113.682V113.668C128.982 107.596 125.942 101.935 121.967 96.6733C121.499 96.0688 121.568 96.0139 122.145 96.4947C130.152 103.172 136.755 110.852 141.969 119.535C149.411 131.927 152.396 146.119 147.526 159.94C146.027 164.213 143.853 168.225 141.212 171.975C140.304 173.267 139.341 174.517 138.337 175.74C136.521 177.938 134.554 180.04 132.477 182.018C131.472 182.98 130.441 183.928 129.381 184.848C129.258 184.958 129.12 185.068 128.996 185.178C127.18 186.731 125.117 188.242 122.819 189.726C122.599 189.863 122.379 190 122.159 190.152C121.031 190.866 119.889 191.58 118.761 192.309C112.626 196.238 106.49 200.346 100.149 203.973C89.4871 210.073 79.2109 217.217 70.5992 225.254C62.868 232.467 54.2288 242.812 53.2933 253.776C53.2658 254.092 53.1971 254.092 53.1008 253.803C50.6383 246.673 49.015 239.199 49.4552 231.739H49.4002Z" fill="#1F438C"/>
<path d="M175.742 141.619C175.742 126.479 188.935 113.771 204.411 113.771C212.583 113.771 220.121 117.219 225.376 122.797L216.971 130.326C213.834 126.712 209.35 124.281 204.411 124.281C195.373 124.281 187.683 132.277 187.683 141.619C187.683 150.961 195.373 159.026 204.411 159.026C209.363 159.026 213.834 156.594 216.971 152.981L225.376 160.51C220.121 166.005 212.569 169.536 204.411 169.536C188.935 169.536 175.742 156.745 175.742 141.619Z" fill="#212E25"/>
<path d="M232.448 145.314V114.718H243.99V144.833C243.99 153.145 249.327 159.025 256.866 159.025C264.404 159.025 269.673 153.145 269.673 144.833V114.718H281.298V145.314C281.298 159.506 271.173 169.549 256.88 169.549C242.586 169.549 232.448 159.506 232.448 145.314Z" fill="#212E25"/>
<path d="M324.246 168.601L311.92 151.112H303.363V168.601H291.821V114.718H316.088C327.795 114.718 336.434 122.247 336.434 132.908C336.434 140.904 331.564 147.183 324.177 149.765L337.452 168.588H324.259L324.246 168.601ZM303.349 140.519H314.822C320.559 140.519 324.48 137.538 324.48 132.908C324.48 128.278 320.559 125.297 314.822 125.297H303.349V140.506V140.519Z" fill="#212E25"/>
<path d="M356.669 125.159V135.903H383.77V146.331H356.669V158.174H386.59V168.601H345.045V114.718H386.59V125.146H356.669V125.159Z" fill="#212E25"/>
<path d="M437.077 158.173V168.601H398.6V114.718H410.224V158.173H437.077Z" fill="#1F438C"/>
<path d="M442.414 141.618C442.414 126.478 455.607 113.77 471.083 113.77C486.559 113.77 499.752 126.478 499.752 141.618C499.752 156.758 486.71 169.535 471.083 169.535C455.455 169.535 442.414 156.744 442.414 141.618ZM487.894 141.618C487.894 132.289 480.204 124.28 471.083 124.28C461.962 124.28 454.355 132.276 454.355 141.618C454.355 150.96 462.045 159.025 471.083 159.025C480.121 159.025 487.894 151.029 487.894 141.618Z" fill="#1F438C"/>
<path d="M533.03 138.334H556.911V160.536C551.491 166.183 543.168 169.562 535.079 169.562C519.452 169.562 506.177 156.772 506.177 141.645C506.177 126.519 519.452 113.797 535.079 113.797C543.168 113.797 551.491 117.163 556.911 122.823L548.506 130.352C545.287 126.67 540.032 124.307 535.079 124.307C525.89 124.307 518.118 132.303 518.118 141.645C518.118 150.988 525.89 159.052 535.079 159.052C538.766 159.052 542.536 157.802 545.603 155.604V147.374H533.03V138.348V138.334Z" fill="#1F438C"/>
<path d="M566.803 114.718H578.427V168.601H566.803V114.718Z" fill="#1F438C"/>
<path d="M587.053 141.618C587.053 126.478 600.245 113.77 615.722 113.77C623.893 113.77 631.432 117.218 636.687 122.796L628.281 130.325C625.145 126.711 620.66 124.28 615.722 124.28C606.683 124.28 598.994 132.276 598.994 141.618C598.994 150.96 606.683 159.025 615.722 159.025C620.674 159.025 625.145 156.593 628.281 152.98L636.687 160.509C631.432 166.004 623.879 169.535 615.722 169.535C600.245 169.535 587.053 156.744 587.053 141.618Z" fill="#1F438C"/>
<path d="M636.686 160.605L643.358 152.678C648.462 157.074 654.281 159.739 661.104 159.739C666.923 159.739 669.895 157.074 669.895 153.694C669.895 149.847 666.758 148.68 658.504 146.797C647.114 144.215 639.025 141 639.025 130.558C639.025 120.117 647.196 113.77 658.972 113.77C667.762 113.77 674.6 116.517 680.102 121.216L674.049 129.528C669.262 125.681 663.842 123.565 658.656 123.565C653.469 123.565 650.718 126.148 650.718 129.363C650.718 133.279 653.937 134.542 662.26 136.425C673.884 139.008 681.574 142.47 681.574 152.43C681.574 162.391 673.802 169.535 660.609 169.535C651.268 169.535 642.945 166.403 636.659 160.591L636.686 160.605Z" fill="#1F438C"/>
</svg>
